<mxfile host="app.diagrams.net" modified="2024-03-05T07:47:53.384Z" agent="Mozilla/5.0 (Windows NT 10.0; Win64; x64) AppleWebKit/537.36 (KHTML, like Gecko) Chrome/121.0.0.0 Safari/537.36" etag="bYkvSjhh8vfA1CXHqFkE" version="24.0.1" type="device" pages="3">
  <diagram name="ER" id="mHWTuoAGhgJ_keY031KC">
    <mxGraphModel dx="2261" dy="746" grid="1" gridSize="10" guides="1" tooltips="1" connect="1" arrows="1" fold="1" page="1" pageScale="1" pageWidth="827" pageHeight="1169" math="0" shadow="0">
      <root>
        <mxCell id="0" />
        <mxCell id="1" parent="0" />
        <mxCell id="virGl1MWygmbbHJwFy9H-1" value="Admin" style="shape=table;startSize=30;container=1;collapsible=1;childLayout=tableLayout;fixedRows=1;rowLines=0;fontStyle=1;align=center;resizeLast=1;html=1;" parent="1" vertex="1">
          <mxGeometry x="50" y="20" width="180" height="180" as="geometry" />
        </mxCell>
        <mxCell id="virGl1MWygmbbHJwFy9H-2" value="" style="shape=tableRow;horizontal=0;startSize=0;swimlaneHead=0;swimlaneBody=0;fillColor=none;collapsible=0;dropTarget=0;points=[[0,0.5],[1,0.5]];portConstraint=eastwest;top=0;left=0;right=0;bottom=1;" parent="virGl1MWygmbbHJwFy9H-1" vertex="1">
          <mxGeometry y="30" width="180" height="30" as="geometry" />
        </mxCell>
        <mxCell id="virGl1MWygmbbHJwFy9H-3" value="PK" style="shape=partialRectangle;connectable=0;fillColor=none;top=0;left=0;bottom=0;right=0;fontStyle=1;overflow=hidden;whiteSpace=wrap;html=1;" parent="virGl1MWygmbbHJwFy9H-2" vertex="1">
          <mxGeometry width="30" height="30" as="geometry">
            <mxRectangle width="30" height="30" as="alternateBounds" />
          </mxGeometry>
        </mxCell>
        <mxCell id="virGl1MWygmbbHJwFy9H-4" value="admin_id" style="shape=partialRectangle;connectable=0;fillColor=none;top=0;left=0;bottom=0;right=0;align=left;spacingLeft=6;fontStyle=5;overflow=hidden;whiteSpace=wrap;html=1;" parent="virGl1MWygmbbHJwFy9H-2" vertex="1">
          <mxGeometry x="30" width="150" height="30" as="geometry">
            <mxRectangle width="150" height="30" as="alternateBounds" />
          </mxGeometry>
        </mxCell>
        <mxCell id="virGl1MWygmbbHJwFy9H-5" value="" style="shape=tableRow;horizontal=0;startSize=0;swimlaneHead=0;swimlaneBody=0;fillColor=none;collapsible=0;dropTarget=0;points=[[0,0.5],[1,0.5]];portConstraint=eastwest;top=0;left=0;right=0;bottom=0;" parent="virGl1MWygmbbHJwFy9H-1" vertex="1">
          <mxGeometry y="60" width="180" height="30" as="geometry" />
        </mxCell>
        <mxCell id="virGl1MWygmbbHJwFy9H-6" value="" style="shape=partialRectangle;connectable=0;fillColor=none;top=0;left=0;bottom=0;right=0;editable=1;overflow=hidden;whiteSpace=wrap;html=1;" parent="virGl1MWygmbbHJwFy9H-5" vertex="1">
          <mxGeometry width="30" height="30" as="geometry">
            <mxRectangle width="30" height="30" as="alternateBounds" />
          </mxGeometry>
        </mxCell>
        <mxCell id="virGl1MWygmbbHJwFy9H-7" value="admin_name" style="shape=partialRectangle;connectable=0;fillColor=none;top=0;left=0;bottom=0;right=0;align=left;spacingLeft=6;overflow=hidden;whiteSpace=wrap;html=1;" parent="virGl1MWygmbbHJwFy9H-5" vertex="1">
          <mxGeometry x="30" width="150" height="30" as="geometry">
            <mxRectangle width="150" height="30" as="alternateBounds" />
          </mxGeometry>
        </mxCell>
        <mxCell id="virGl1MWygmbbHJwFy9H-8" value="" style="shape=tableRow;horizontal=0;startSize=0;swimlaneHead=0;swimlaneBody=0;fillColor=none;collapsible=0;dropTarget=0;points=[[0,0.5],[1,0.5]];portConstraint=eastwest;top=0;left=0;right=0;bottom=0;" parent="virGl1MWygmbbHJwFy9H-1" vertex="1">
          <mxGeometry y="90" width="180" height="30" as="geometry" />
        </mxCell>
        <mxCell id="virGl1MWygmbbHJwFy9H-9" value="" style="shape=partialRectangle;connectable=0;fillColor=none;top=0;left=0;bottom=0;right=0;editable=1;overflow=hidden;whiteSpace=wrap;html=1;" parent="virGl1MWygmbbHJwFy9H-8" vertex="1">
          <mxGeometry width="30" height="30" as="geometry">
            <mxRectangle width="30" height="30" as="alternateBounds" />
          </mxGeometry>
        </mxCell>
        <mxCell id="virGl1MWygmbbHJwFy9H-10" value="admin_email" style="shape=partialRectangle;connectable=0;fillColor=none;top=0;left=0;bottom=0;right=0;align=left;spacingLeft=6;overflow=hidden;whiteSpace=wrap;html=1;" parent="virGl1MWygmbbHJwFy9H-8" vertex="1">
          <mxGeometry x="30" width="150" height="30" as="geometry">
            <mxRectangle width="150" height="30" as="alternateBounds" />
          </mxGeometry>
        </mxCell>
        <mxCell id="virGl1MWygmbbHJwFy9H-11" value="" style="shape=tableRow;horizontal=0;startSize=0;swimlaneHead=0;swimlaneBody=0;fillColor=none;collapsible=0;dropTarget=0;points=[[0,0.5],[1,0.5]];portConstraint=eastwest;top=0;left=0;right=0;bottom=0;" parent="virGl1MWygmbbHJwFy9H-1" vertex="1">
          <mxGeometry y="120" width="180" height="30" as="geometry" />
        </mxCell>
        <mxCell id="virGl1MWygmbbHJwFy9H-12" value="" style="shape=partialRectangle;connectable=0;fillColor=none;top=0;left=0;bottom=0;right=0;editable=1;overflow=hidden;whiteSpace=wrap;html=1;" parent="virGl1MWygmbbHJwFy9H-11" vertex="1">
          <mxGeometry width="30" height="30" as="geometry">
            <mxRectangle width="30" height="30" as="alternateBounds" />
          </mxGeometry>
        </mxCell>
        <mxCell id="virGl1MWygmbbHJwFy9H-13" value="admin_password" style="shape=partialRectangle;connectable=0;fillColor=none;top=0;left=0;bottom=0;right=0;align=left;spacingLeft=6;overflow=hidden;whiteSpace=wrap;html=1;" parent="virGl1MWygmbbHJwFy9H-11" vertex="1">
          <mxGeometry x="30" width="150" height="30" as="geometry">
            <mxRectangle width="150" height="30" as="alternateBounds" />
          </mxGeometry>
        </mxCell>
        <mxCell id="virGl1MWygmbbHJwFy9H-14" style="shape=tableRow;horizontal=0;startSize=0;swimlaneHead=0;swimlaneBody=0;fillColor=none;collapsible=0;dropTarget=0;points=[[0,0.5],[1,0.5]];portConstraint=eastwest;top=0;left=0;right=0;bottom=0;" parent="virGl1MWygmbbHJwFy9H-1" vertex="1">
          <mxGeometry y="150" width="180" height="30" as="geometry" />
        </mxCell>
        <mxCell id="virGl1MWygmbbHJwFy9H-15" style="shape=partialRectangle;connectable=0;fillColor=none;top=0;left=0;bottom=0;right=0;editable=1;overflow=hidden;whiteSpace=wrap;html=1;" parent="virGl1MWygmbbHJwFy9H-14" vertex="1">
          <mxGeometry width="30" height="30" as="geometry">
            <mxRectangle width="30" height="30" as="alternateBounds" />
          </mxGeometry>
        </mxCell>
        <mxCell id="virGl1MWygmbbHJwFy9H-16" value="delete_flg" style="shape=partialRectangle;connectable=0;fillColor=none;top=0;left=0;bottom=0;right=0;align=left;spacingLeft=6;overflow=hidden;whiteSpace=wrap;html=1;" parent="virGl1MWygmbbHJwFy9H-14" vertex="1">
          <mxGeometry x="30" width="150" height="30" as="geometry">
            <mxRectangle width="150" height="30" as="alternateBounds" />
          </mxGeometry>
        </mxCell>
        <mxCell id="virGl1MWygmbbHJwFy9H-17" value="&lt;span style=&quot;font-family: Arial; font-size: 13px; font-weight: 400; text-align: left; white-space: pre-wrap; background-color: rgb(255, 255, 255);&quot;&gt;Transaction_History&lt;/span&gt;" style="shape=table;startSize=30;container=1;collapsible=1;childLayout=tableLayout;fixedRows=1;rowLines=0;fontStyle=1;align=center;resizeLast=1;html=1;" parent="1" vertex="1">
          <mxGeometry x="670" y="320" width="280" height="180" as="geometry" />
        </mxCell>
        <mxCell id="virGl1MWygmbbHJwFy9H-18" value="" style="shape=tableRow;horizontal=0;startSize=0;swimlaneHead=0;swimlaneBody=0;fillColor=none;collapsible=0;dropTarget=0;points=[[0,0.5],[1,0.5]];portConstraint=eastwest;top=0;left=0;right=0;bottom=1;" parent="virGl1MWygmbbHJwFy9H-17" vertex="1">
          <mxGeometry y="30" width="280" height="30" as="geometry" />
        </mxCell>
        <mxCell id="virGl1MWygmbbHJwFy9H-19" value="PK" style="shape=partialRectangle;connectable=0;fillColor=none;top=0;left=0;bottom=0;right=0;fontStyle=1;overflow=hidden;whiteSpace=wrap;html=1;" parent="virGl1MWygmbbHJwFy9H-18" vertex="1">
          <mxGeometry width="30" height="30" as="geometry">
            <mxRectangle width="30" height="30" as="alternateBounds" />
          </mxGeometry>
        </mxCell>
        <mxCell id="virGl1MWygmbbHJwFy9H-20" value="&lt;span style=&quot;font-family: Arial; font-size: 13px; font-weight: 400; white-space-collapse: preserve; background-color: rgb(255, 255, 255);&quot;&gt;history_id&lt;/span&gt;" style="shape=partialRectangle;connectable=0;fillColor=none;top=0;left=0;bottom=0;right=0;align=left;spacingLeft=6;fontStyle=5;overflow=hidden;whiteSpace=wrap;html=1;" parent="virGl1MWygmbbHJwFy9H-18" vertex="1">
          <mxGeometry x="30" width="250" height="30" as="geometry">
            <mxRectangle width="250" height="30" as="alternateBounds" />
          </mxGeometry>
        </mxCell>
        <mxCell id="virGl1MWygmbbHJwFy9H-21" value="" style="shape=tableRow;horizontal=0;startSize=0;swimlaneHead=0;swimlaneBody=0;fillColor=none;collapsible=0;dropTarget=0;points=[[0,0.5],[1,0.5]];portConstraint=eastwest;top=0;left=0;right=0;bottom=0;" parent="virGl1MWygmbbHJwFy9H-17" vertex="1">
          <mxGeometry y="60" width="280" height="30" as="geometry" />
        </mxCell>
        <mxCell id="virGl1MWygmbbHJwFy9H-22" value="" style="shape=partialRectangle;connectable=0;fillColor=none;top=0;left=0;bottom=0;right=0;editable=1;overflow=hidden;whiteSpace=wrap;html=1;" parent="virGl1MWygmbbHJwFy9H-21" vertex="1">
          <mxGeometry width="30" height="30" as="geometry">
            <mxRectangle width="30" height="30" as="alternateBounds" />
          </mxGeometry>
        </mxCell>
        <mxCell id="virGl1MWygmbbHJwFy9H-23" value="&lt;span style=&quot;font-family: Arial; font-size: 13px; white-space-collapse: preserve; background-color: rgb(255, 255, 255);&quot;&gt;product_purchase_date_time&lt;/span&gt;" style="shape=partialRectangle;connectable=0;fillColor=none;top=0;left=0;bottom=0;right=0;align=left;spacingLeft=6;overflow=hidden;whiteSpace=wrap;html=1;" parent="virGl1MWygmbbHJwFy9H-21" vertex="1">
          <mxGeometry x="30" width="250" height="30" as="geometry">
            <mxRectangle width="250" height="30" as="alternateBounds" />
          </mxGeometry>
        </mxCell>
        <mxCell id="virGl1MWygmbbHJwFy9H-24" value="" style="shape=tableRow;horizontal=0;startSize=0;swimlaneHead=0;swimlaneBody=0;fillColor=none;collapsible=0;dropTarget=0;points=[[0,0.5],[1,0.5]];portConstraint=eastwest;top=0;left=0;right=0;bottom=0;" parent="virGl1MWygmbbHJwFy9H-17" vertex="1">
          <mxGeometry y="90" width="280" height="30" as="geometry" />
        </mxCell>
        <mxCell id="virGl1MWygmbbHJwFy9H-25" value="" style="shape=partialRectangle;connectable=0;fillColor=none;top=0;left=0;bottom=0;right=0;editable=1;overflow=hidden;whiteSpace=wrap;html=1;" parent="virGl1MWygmbbHJwFy9H-24" vertex="1">
          <mxGeometry width="30" height="30" as="geometry">
            <mxRectangle width="30" height="30" as="alternateBounds" />
          </mxGeometry>
        </mxCell>
        <mxCell id="virGl1MWygmbbHJwFy9H-26" value="total_price" style="shape=partialRectangle;connectable=0;fillColor=none;top=0;left=0;bottom=0;right=0;align=left;spacingLeft=6;overflow=hidden;whiteSpace=wrap;html=1;" parent="virGl1MWygmbbHJwFy9H-24" vertex="1">
          <mxGeometry x="30" width="250" height="30" as="geometry">
            <mxRectangle width="250" height="30" as="alternateBounds" />
          </mxGeometry>
        </mxCell>
        <mxCell id="virGl1MWygmbbHJwFy9H-27" value="" style="shape=tableRow;horizontal=0;startSize=0;swimlaneHead=0;swimlaneBody=0;fillColor=none;collapsible=0;dropTarget=0;points=[[0,0.5],[1,0.5]];portConstraint=eastwest;top=0;left=0;right=0;bottom=0;" parent="virGl1MWygmbbHJwFy9H-17" vertex="1">
          <mxGeometry y="120" width="280" height="30" as="geometry" />
        </mxCell>
        <mxCell id="virGl1MWygmbbHJwFy9H-28" value="" style="shape=partialRectangle;connectable=0;fillColor=none;top=0;left=0;bottom=0;right=0;editable=1;overflow=hidden;whiteSpace=wrap;html=1;" parent="virGl1MWygmbbHJwFy9H-27" vertex="1">
          <mxGeometry width="30" height="30" as="geometry">
            <mxRectangle width="30" height="30" as="alternateBounds" />
          </mxGeometry>
        </mxCell>
        <mxCell id="virGl1MWygmbbHJwFy9H-29" value="payment" style="shape=partialRectangle;connectable=0;fillColor=none;top=0;left=0;bottom=0;right=0;align=left;spacingLeft=6;overflow=hidden;whiteSpace=wrap;html=1;" parent="virGl1MWygmbbHJwFy9H-27" vertex="1">
          <mxGeometry x="30" width="250" height="30" as="geometry">
            <mxRectangle width="250" height="30" as="alternateBounds" />
          </mxGeometry>
        </mxCell>
        <mxCell id="virGl1MWygmbbHJwFy9H-95" style="shape=tableRow;horizontal=0;startSize=0;swimlaneHead=0;swimlaneBody=0;fillColor=none;collapsible=0;dropTarget=0;points=[[0,0.5],[1,0.5]];portConstraint=eastwest;top=0;left=0;right=0;bottom=0;" parent="virGl1MWygmbbHJwFy9H-17" vertex="1">
          <mxGeometry y="150" width="280" height="30" as="geometry" />
        </mxCell>
        <mxCell id="virGl1MWygmbbHJwFy9H-96" value="FK" style="shape=partialRectangle;connectable=0;fillColor=none;top=0;left=0;bottom=0;right=0;editable=1;overflow=hidden;whiteSpace=wrap;html=1;" parent="virGl1MWygmbbHJwFy9H-95" vertex="1">
          <mxGeometry width="30" height="30" as="geometry">
            <mxRectangle width="30" height="30" as="alternateBounds" />
          </mxGeometry>
        </mxCell>
        <mxCell id="virGl1MWygmbbHJwFy9H-97" value="user_id" style="shape=partialRectangle;connectable=0;fillColor=none;top=0;left=0;bottom=0;right=0;align=left;spacingLeft=6;overflow=hidden;whiteSpace=wrap;html=1;" parent="virGl1MWygmbbHJwFy9H-95" vertex="1">
          <mxGeometry x="30" width="250" height="30" as="geometry">
            <mxRectangle width="250" height="30" as="alternateBounds" />
          </mxGeometry>
        </mxCell>
        <mxCell id="virGl1MWygmbbHJwFy9H-30" value="Users" style="shape=table;startSize=30;container=1;collapsible=1;childLayout=tableLayout;fixedRows=1;rowLines=0;fontStyle=1;align=center;resizeLast=1;html=1;" parent="1" vertex="1">
          <mxGeometry x="1020" y="30" width="180" height="170" as="geometry" />
        </mxCell>
        <mxCell id="virGl1MWygmbbHJwFy9H-31" value="" style="shape=tableRow;horizontal=0;startSize=0;swimlaneHead=0;swimlaneBody=0;fillColor=none;collapsible=0;dropTarget=0;points=[[0,0.5],[1,0.5]];portConstraint=eastwest;top=0;left=0;right=0;bottom=1;" parent="virGl1MWygmbbHJwFy9H-30" vertex="1">
          <mxGeometry y="30" width="180" height="20" as="geometry" />
        </mxCell>
        <mxCell id="virGl1MWygmbbHJwFy9H-32" value="PK" style="shape=partialRectangle;connectable=0;fillColor=none;top=0;left=0;bottom=0;right=0;fontStyle=1;overflow=hidden;whiteSpace=wrap;html=1;" parent="virGl1MWygmbbHJwFy9H-31" vertex="1">
          <mxGeometry width="30" height="20" as="geometry">
            <mxRectangle width="30" height="20" as="alternateBounds" />
          </mxGeometry>
        </mxCell>
        <mxCell id="virGl1MWygmbbHJwFy9H-33" value="user_id" style="shape=partialRectangle;connectable=0;fillColor=none;top=0;left=0;bottom=0;right=0;align=left;spacingLeft=6;fontStyle=5;overflow=hidden;whiteSpace=wrap;html=1;" parent="virGl1MWygmbbHJwFy9H-31" vertex="1">
          <mxGeometry x="30" width="150" height="20" as="geometry">
            <mxRectangle width="150" height="20" as="alternateBounds" />
          </mxGeometry>
        </mxCell>
        <mxCell id="virGl1MWygmbbHJwFy9H-34" value="" style="shape=tableRow;horizontal=0;startSize=0;swimlaneHead=0;swimlaneBody=0;fillColor=none;collapsible=0;dropTarget=0;points=[[0,0.5],[1,0.5]];portConstraint=eastwest;top=0;left=0;right=0;bottom=0;" parent="virGl1MWygmbbHJwFy9H-30" vertex="1">
          <mxGeometry y="50" width="180" height="30" as="geometry" />
        </mxCell>
        <mxCell id="virGl1MWygmbbHJwFy9H-35" value="" style="shape=partialRectangle;connectable=0;fillColor=none;top=0;left=0;bottom=0;right=0;editable=1;overflow=hidden;whiteSpace=wrap;html=1;" parent="virGl1MWygmbbHJwFy9H-34" vertex="1">
          <mxGeometry width="30" height="30" as="geometry">
            <mxRectangle width="30" height="30" as="alternateBounds" />
          </mxGeometry>
        </mxCell>
        <mxCell id="virGl1MWygmbbHJwFy9H-36" value="user_name" style="shape=partialRectangle;connectable=0;fillColor=none;top=0;left=0;bottom=0;right=0;align=left;spacingLeft=6;overflow=hidden;whiteSpace=wrap;html=1;" parent="virGl1MWygmbbHJwFy9H-34" vertex="1">
          <mxGeometry x="30" width="150" height="30" as="geometry">
            <mxRectangle width="150" height="30" as="alternateBounds" />
          </mxGeometry>
        </mxCell>
        <mxCell id="virGl1MWygmbbHJwFy9H-37" value="" style="shape=tableRow;horizontal=0;startSize=0;swimlaneHead=0;swimlaneBody=0;fillColor=none;collapsible=0;dropTarget=0;points=[[0,0.5],[1,0.5]];portConstraint=eastwest;top=0;left=0;right=0;bottom=0;" parent="virGl1MWygmbbHJwFy9H-30" vertex="1">
          <mxGeometry y="80" width="180" height="30" as="geometry" />
        </mxCell>
        <mxCell id="virGl1MWygmbbHJwFy9H-38" value="" style="shape=partialRectangle;connectable=0;fillColor=none;top=0;left=0;bottom=0;right=0;editable=1;overflow=hidden;whiteSpace=wrap;html=1;" parent="virGl1MWygmbbHJwFy9H-37" vertex="1">
          <mxGeometry width="30" height="30" as="geometry">
            <mxRectangle width="30" height="30" as="alternateBounds" />
          </mxGeometry>
        </mxCell>
        <mxCell id="virGl1MWygmbbHJwFy9H-39" value="user_password" style="shape=partialRectangle;connectable=0;fillColor=none;top=0;left=0;bottom=0;right=0;align=left;spacingLeft=6;overflow=hidden;whiteSpace=wrap;html=1;" parent="virGl1MWygmbbHJwFy9H-37" vertex="1">
          <mxGeometry x="30" width="150" height="30" as="geometry">
            <mxRectangle width="150" height="30" as="alternateBounds" />
          </mxGeometry>
        </mxCell>
        <mxCell id="virGl1MWygmbbHJwFy9H-40" value="" style="shape=tableRow;horizontal=0;startSize=0;swimlaneHead=0;swimlaneBody=0;fillColor=none;collapsible=0;dropTarget=0;points=[[0,0.5],[1,0.5]];portConstraint=eastwest;top=0;left=0;right=0;bottom=0;" parent="virGl1MWygmbbHJwFy9H-30" vertex="1">
          <mxGeometry y="110" width="180" height="30" as="geometry" />
        </mxCell>
        <mxCell id="virGl1MWygmbbHJwFy9H-41" value="" style="shape=partialRectangle;connectable=0;fillColor=none;top=0;left=0;bottom=0;right=0;editable=1;overflow=hidden;whiteSpace=wrap;html=1;" parent="virGl1MWygmbbHJwFy9H-40" vertex="1">
          <mxGeometry width="30" height="30" as="geometry">
            <mxRectangle width="30" height="30" as="alternateBounds" />
          </mxGeometry>
        </mxCell>
        <mxCell id="virGl1MWygmbbHJwFy9H-42" value="user_email" style="shape=partialRectangle;connectable=0;fillColor=none;top=0;left=0;bottom=0;right=0;align=left;spacingLeft=6;overflow=hidden;whiteSpace=wrap;html=1;" parent="virGl1MWygmbbHJwFy9H-40" vertex="1">
          <mxGeometry x="30" width="150" height="30" as="geometry">
            <mxRectangle width="150" height="30" as="alternateBounds" />
          </mxGeometry>
        </mxCell>
        <mxCell id="virGl1MWygmbbHJwFy9H-91" style="shape=tableRow;horizontal=0;startSize=0;swimlaneHead=0;swimlaneBody=0;fillColor=none;collapsible=0;dropTarget=0;points=[[0,0.5],[1,0.5]];portConstraint=eastwest;top=0;left=0;right=0;bottom=0;" parent="virGl1MWygmbbHJwFy9H-30" vertex="1">
          <mxGeometry y="140" width="180" height="30" as="geometry" />
        </mxCell>
        <mxCell id="virGl1MWygmbbHJwFy9H-92" style="shape=partialRectangle;connectable=0;fillColor=none;top=0;left=0;bottom=0;right=0;editable=1;overflow=hidden;whiteSpace=wrap;html=1;" parent="virGl1MWygmbbHJwFy9H-91" vertex="1">
          <mxGeometry width="30" height="30" as="geometry">
            <mxRectangle width="30" height="30" as="alternateBounds" />
          </mxGeometry>
        </mxCell>
        <mxCell id="virGl1MWygmbbHJwFy9H-93" value="delete_flg" style="shape=partialRectangle;connectable=0;fillColor=none;top=0;left=0;bottom=0;right=0;align=left;spacingLeft=6;overflow=hidden;whiteSpace=wrap;html=1;" parent="virGl1MWygmbbHJwFy9H-91" vertex="1">
          <mxGeometry x="30" width="150" height="30" as="geometry">
            <mxRectangle width="150" height="30" as="alternateBounds" />
          </mxGeometry>
        </mxCell>
        <mxCell id="virGl1MWygmbbHJwFy9H-43" value="Product" style="shape=table;startSize=30;container=1;collapsible=1;childLayout=tableLayout;fixedRows=1;rowLines=0;fontStyle=1;align=center;resizeLast=1;html=1;" parent="1" vertex="1">
          <mxGeometry x="50" y="320" width="180" height="250" as="geometry" />
        </mxCell>
        <mxCell id="virGl1MWygmbbHJwFy9H-44" value="" style="shape=tableRow;horizontal=0;startSize=0;swimlaneHead=0;swimlaneBody=0;fillColor=none;collapsible=0;dropTarget=0;points=[[0,0.5],[1,0.5]];portConstraint=eastwest;top=0;left=0;right=0;bottom=1;" parent="virGl1MWygmbbHJwFy9H-43" vertex="1">
          <mxGeometry y="30" width="180" height="30" as="geometry" />
        </mxCell>
        <mxCell id="virGl1MWygmbbHJwFy9H-45" value="PK" style="shape=partialRectangle;connectable=0;fillColor=none;top=0;left=0;bottom=0;right=0;fontStyle=1;overflow=hidden;whiteSpace=wrap;html=1;" parent="virGl1MWygmbbHJwFy9H-44" vertex="1">
          <mxGeometry width="30" height="30" as="geometry">
            <mxRectangle width="30" height="30" as="alternateBounds" />
          </mxGeometry>
        </mxCell>
        <mxCell id="virGl1MWygmbbHJwFy9H-46" value="product_id" style="shape=partialRectangle;connectable=0;fillColor=none;top=0;left=0;bottom=0;right=0;align=left;spacingLeft=6;fontStyle=5;overflow=hidden;whiteSpace=wrap;html=1;" parent="virGl1MWygmbbHJwFy9H-44" vertex="1">
          <mxGeometry x="30" width="150" height="30" as="geometry">
            <mxRectangle width="150" height="30" as="alternateBounds" />
          </mxGeometry>
        </mxCell>
        <mxCell id="virGl1MWygmbbHJwFy9H-47" value="" style="shape=tableRow;horizontal=0;startSize=0;swimlaneHead=0;swimlaneBody=0;fillColor=none;collapsible=0;dropTarget=0;points=[[0,0.5],[1,0.5]];portConstraint=eastwest;top=0;left=0;right=0;bottom=0;" parent="virGl1MWygmbbHJwFy9H-43" vertex="1">
          <mxGeometry y="60" width="180" height="30" as="geometry" />
        </mxCell>
        <mxCell id="virGl1MWygmbbHJwFy9H-48" value="" style="shape=partialRectangle;connectable=0;fillColor=none;top=0;left=0;bottom=0;right=0;editable=1;overflow=hidden;whiteSpace=wrap;html=1;" parent="virGl1MWygmbbHJwFy9H-47" vertex="1">
          <mxGeometry width="30" height="30" as="geometry">
            <mxRectangle width="30" height="30" as="alternateBounds" />
          </mxGeometry>
        </mxCell>
        <mxCell id="virGl1MWygmbbHJwFy9H-49" value="product_name" style="shape=partialRectangle;connectable=0;fillColor=none;top=0;left=0;bottom=0;right=0;align=left;spacingLeft=6;overflow=hidden;whiteSpace=wrap;html=1;" parent="virGl1MWygmbbHJwFy9H-47" vertex="1">
          <mxGeometry x="30" width="150" height="30" as="geometry">
            <mxRectangle width="150" height="30" as="alternateBounds" />
          </mxGeometry>
        </mxCell>
        <mxCell id="virGl1MWygmbbHJwFy9H-50" value="" style="shape=tableRow;horizontal=0;startSize=0;swimlaneHead=0;swimlaneBody=0;fillColor=none;collapsible=0;dropTarget=0;points=[[0,0.5],[1,0.5]];portConstraint=eastwest;top=0;left=0;right=0;bottom=0;" parent="virGl1MWygmbbHJwFy9H-43" vertex="1">
          <mxGeometry y="90" width="180" height="20" as="geometry" />
        </mxCell>
        <mxCell id="virGl1MWygmbbHJwFy9H-51" value="" style="shape=partialRectangle;connectable=0;fillColor=none;top=0;left=0;bottom=0;right=0;editable=1;overflow=hidden;whiteSpace=wrap;html=1;" parent="virGl1MWygmbbHJwFy9H-50" vertex="1">
          <mxGeometry width="30" height="20" as="geometry">
            <mxRectangle width="30" height="20" as="alternateBounds" />
          </mxGeometry>
        </mxCell>
        <mxCell id="virGl1MWygmbbHJwFy9H-52" value="product_price" style="shape=partialRectangle;connectable=0;fillColor=none;top=0;left=0;bottom=0;right=0;align=left;spacingLeft=6;overflow=hidden;whiteSpace=wrap;html=1;" parent="virGl1MWygmbbHJwFy9H-50" vertex="1">
          <mxGeometry x="30" width="150" height="20" as="geometry">
            <mxRectangle width="150" height="20" as="alternateBounds" />
          </mxGeometry>
        </mxCell>
        <mxCell id="virGl1MWygmbbHJwFy9H-53" value="" style="shape=tableRow;horizontal=0;startSize=0;swimlaneHead=0;swimlaneBody=0;fillColor=none;collapsible=0;dropTarget=0;points=[[0,0.5],[1,0.5]];portConstraint=eastwest;top=0;left=0;right=0;bottom=0;" parent="virGl1MWygmbbHJwFy9H-43" vertex="1">
          <mxGeometry y="110" width="180" height="20" as="geometry" />
        </mxCell>
        <mxCell id="virGl1MWygmbbHJwFy9H-54" value="" style="shape=partialRectangle;connectable=0;fillColor=none;top=0;left=0;bottom=0;right=0;editable=1;overflow=hidden;whiteSpace=wrap;html=1;" parent="virGl1MWygmbbHJwFy9H-53" vertex="1">
          <mxGeometry width="30" height="20" as="geometry">
            <mxRectangle width="30" height="20" as="alternateBounds" />
          </mxGeometry>
        </mxCell>
        <mxCell id="virGl1MWygmbbHJwFy9H-55" value="product_detail" style="shape=partialRectangle;connectable=0;fillColor=none;top=0;left=0;bottom=0;right=0;align=left;spacingLeft=6;overflow=hidden;whiteSpace=wrap;html=1;" parent="virGl1MWygmbbHJwFy9H-53" vertex="1">
          <mxGeometry x="30" width="150" height="20" as="geometry">
            <mxRectangle width="150" height="20" as="alternateBounds" />
          </mxGeometry>
        </mxCell>
        <mxCell id="virGl1MWygmbbHJwFy9H-82" style="shape=tableRow;horizontal=0;startSize=0;swimlaneHead=0;swimlaneBody=0;fillColor=none;collapsible=0;dropTarget=0;points=[[0,0.5],[1,0.5]];portConstraint=eastwest;top=0;left=0;right=0;bottom=0;" parent="virGl1MWygmbbHJwFy9H-43" vertex="1">
          <mxGeometry y="130" width="180" height="30" as="geometry" />
        </mxCell>
        <mxCell id="virGl1MWygmbbHJwFy9H-83" style="shape=partialRectangle;connectable=0;fillColor=none;top=0;left=0;bottom=0;right=0;editable=1;overflow=hidden;whiteSpace=wrap;html=1;" parent="virGl1MWygmbbHJwFy9H-82" vertex="1">
          <mxGeometry width="30" height="30" as="geometry">
            <mxRectangle width="30" height="30" as="alternateBounds" />
          </mxGeometry>
        </mxCell>
        <mxCell id="virGl1MWygmbbHJwFy9H-84" value="product_image" style="shape=partialRectangle;connectable=0;fillColor=none;top=0;left=0;bottom=0;right=0;align=left;spacingLeft=6;overflow=hidden;whiteSpace=wrap;html=1;" parent="virGl1MWygmbbHJwFy9H-82" vertex="1">
          <mxGeometry x="30" width="150" height="30" as="geometry">
            <mxRectangle width="150" height="30" as="alternateBounds" />
          </mxGeometry>
        </mxCell>
        <mxCell id="virGl1MWygmbbHJwFy9H-85" style="shape=tableRow;horizontal=0;startSize=0;swimlaneHead=0;swimlaneBody=0;fillColor=none;collapsible=0;dropTarget=0;points=[[0,0.5],[1,0.5]];portConstraint=eastwest;top=0;left=0;right=0;bottom=0;" parent="virGl1MWygmbbHJwFy9H-43" vertex="1">
          <mxGeometry y="160" width="180" height="30" as="geometry" />
        </mxCell>
        <mxCell id="virGl1MWygmbbHJwFy9H-86" style="shape=partialRectangle;connectable=0;fillColor=none;top=0;left=0;bottom=0;right=0;editable=1;overflow=hidden;whiteSpace=wrap;html=1;" parent="virGl1MWygmbbHJwFy9H-85" vertex="1">
          <mxGeometry width="30" height="30" as="geometry">
            <mxRectangle width="30" height="30" as="alternateBounds" />
          </mxGeometry>
        </mxCell>
        <mxCell id="virGl1MWygmbbHJwFy9H-87" value="product_date" style="shape=partialRectangle;connectable=0;fillColor=none;top=0;left=0;bottom=0;right=0;align=left;spacingLeft=6;overflow=hidden;whiteSpace=wrap;html=1;" parent="virGl1MWygmbbHJwFy9H-85" vertex="1">
          <mxGeometry x="30" width="150" height="30" as="geometry">
            <mxRectangle width="150" height="30" as="alternateBounds" />
          </mxGeometry>
        </mxCell>
        <mxCell id="virGl1MWygmbbHJwFy9H-88" style="shape=tableRow;horizontal=0;startSize=0;swimlaneHead=0;swimlaneBody=0;fillColor=none;collapsible=0;dropTarget=0;points=[[0,0.5],[1,0.5]];portConstraint=eastwest;top=0;left=0;right=0;bottom=0;" parent="virGl1MWygmbbHJwFy9H-43" vertex="1">
          <mxGeometry y="190" width="180" height="30" as="geometry" />
        </mxCell>
        <mxCell id="virGl1MWygmbbHJwFy9H-89" style="shape=partialRectangle;connectable=0;fillColor=none;top=0;left=0;bottom=0;right=0;editable=1;overflow=hidden;whiteSpace=wrap;html=1;" parent="virGl1MWygmbbHJwFy9H-88" vertex="1">
          <mxGeometry width="30" height="30" as="geometry">
            <mxRectangle width="30" height="30" as="alternateBounds" />
          </mxGeometry>
        </mxCell>
        <mxCell id="virGl1MWygmbbHJwFy9H-90" value="delete_flg" style="shape=partialRectangle;connectable=0;fillColor=none;top=0;left=0;bottom=0;right=0;align=left;spacingLeft=6;overflow=hidden;whiteSpace=wrap;html=1;" parent="virGl1MWygmbbHJwFy9H-88" vertex="1">
          <mxGeometry x="30" width="150" height="30" as="geometry">
            <mxRectangle width="150" height="30" as="alternateBounds" />
          </mxGeometry>
        </mxCell>
        <mxCell id="virGl1MWygmbbHJwFy9H-114" style="shape=tableRow;horizontal=0;startSize=0;swimlaneHead=0;swimlaneBody=0;fillColor=none;collapsible=0;dropTarget=0;points=[[0,0.5],[1,0.5]];portConstraint=eastwest;top=0;left=0;right=0;bottom=0;" parent="virGl1MWygmbbHJwFy9H-43" vertex="1">
          <mxGeometry y="220" width="180" height="30" as="geometry" />
        </mxCell>
        <mxCell id="virGl1MWygmbbHJwFy9H-115" value="FK" style="shape=partialRectangle;connectable=0;fillColor=none;top=0;left=0;bottom=0;right=0;editable=1;overflow=hidden;whiteSpace=wrap;html=1;" parent="virGl1MWygmbbHJwFy9H-114" vertex="1">
          <mxGeometry width="30" height="30" as="geometry">
            <mxRectangle width="30" height="30" as="alternateBounds" />
          </mxGeometry>
        </mxCell>
        <mxCell id="virGl1MWygmbbHJwFy9H-116" value="admin_id" style="shape=partialRectangle;connectable=0;fillColor=none;top=0;left=0;bottom=0;right=0;align=left;spacingLeft=6;overflow=hidden;whiteSpace=wrap;html=1;" parent="virGl1MWygmbbHJwFy9H-114" vertex="1">
          <mxGeometry x="30" width="150" height="30" as="geometry">
            <mxRectangle width="150" height="30" as="alternateBounds" />
          </mxGeometry>
        </mxCell>
        <mxCell id="virGl1MWygmbbHJwFy9H-69" value="&lt;span style=&quot;font-family: Arial; font-size: 13px; font-weight: 400; text-align: left; white-space: pre-wrap; background-color: rgb(255, 255, 255);&quot;&gt;Transaction_Item&lt;/span&gt;" style="shape=table;startSize=30;container=1;collapsible=1;childLayout=tableLayout;fixedRows=1;rowLines=0;fontStyle=1;align=center;resizeLast=1;html=1;" parent="1" vertex="1">
          <mxGeometry x="390" y="280" width="180" height="120" as="geometry" />
        </mxCell>
        <mxCell id="virGl1MWygmbbHJwFy9H-70" value="" style="shape=tableRow;horizontal=0;startSize=0;swimlaneHead=0;swimlaneBody=0;fillColor=none;collapsible=0;dropTarget=0;points=[[0,0.5],[1,0.5]];portConstraint=eastwest;top=0;left=0;right=0;bottom=1;" parent="virGl1MWygmbbHJwFy9H-69" vertex="1">
          <mxGeometry y="30" width="180" height="30" as="geometry" />
        </mxCell>
        <mxCell id="virGl1MWygmbbHJwFy9H-71" value="PK" style="shape=partialRectangle;connectable=0;fillColor=none;top=0;left=0;bottom=0;right=0;fontStyle=1;overflow=hidden;whiteSpace=wrap;html=1;" parent="virGl1MWygmbbHJwFy9H-70" vertex="1">
          <mxGeometry width="30" height="30" as="geometry">
            <mxRectangle width="30" height="30" as="alternateBounds" />
          </mxGeometry>
        </mxCell>
        <mxCell id="virGl1MWygmbbHJwFy9H-72" value="order_id" style="shape=partialRectangle;connectable=0;fillColor=none;top=0;left=0;bottom=0;right=0;align=left;spacingLeft=6;fontStyle=5;overflow=hidden;whiteSpace=wrap;html=1;" parent="virGl1MWygmbbHJwFy9H-70" vertex="1">
          <mxGeometry x="30" width="150" height="30" as="geometry">
            <mxRectangle width="150" height="30" as="alternateBounds" />
          </mxGeometry>
        </mxCell>
        <mxCell id="virGl1MWygmbbHJwFy9H-73" value="" style="shape=tableRow;horizontal=0;startSize=0;swimlaneHead=0;swimlaneBody=0;fillColor=none;collapsible=0;dropTarget=0;points=[[0,0.5],[1,0.5]];portConstraint=eastwest;top=0;left=0;right=0;bottom=0;" parent="virGl1MWygmbbHJwFy9H-69" vertex="1">
          <mxGeometry y="60" width="180" height="30" as="geometry" />
        </mxCell>
        <mxCell id="virGl1MWygmbbHJwFy9H-74" value="FK" style="shape=partialRectangle;connectable=0;fillColor=none;top=0;left=0;bottom=0;right=0;editable=1;overflow=hidden;whiteSpace=wrap;html=1;" parent="virGl1MWygmbbHJwFy9H-73" vertex="1">
          <mxGeometry width="30" height="30" as="geometry">
            <mxRectangle width="30" height="30" as="alternateBounds" />
          </mxGeometry>
        </mxCell>
        <mxCell id="virGl1MWygmbbHJwFy9H-75" value="product_id" style="shape=partialRectangle;connectable=0;fillColor=none;top=0;left=0;bottom=0;right=0;align=left;spacingLeft=6;overflow=hidden;whiteSpace=wrap;html=1;" parent="virGl1MWygmbbHJwFy9H-73" vertex="1">
          <mxGeometry x="30" width="150" height="30" as="geometry">
            <mxRectangle width="150" height="30" as="alternateBounds" />
          </mxGeometry>
        </mxCell>
        <mxCell id="virGl1MWygmbbHJwFy9H-76" value="" style="shape=tableRow;horizontal=0;startSize=0;swimlaneHead=0;swimlaneBody=0;fillColor=none;collapsible=0;dropTarget=0;points=[[0,0.5],[1,0.5]];portConstraint=eastwest;top=0;left=0;right=0;bottom=0;" parent="virGl1MWygmbbHJwFy9H-69" vertex="1">
          <mxGeometry y="90" width="180" height="30" as="geometry" />
        </mxCell>
        <mxCell id="virGl1MWygmbbHJwFy9H-77" value="FK" style="shape=partialRectangle;connectable=0;fillColor=none;top=0;left=0;bottom=0;right=0;editable=1;overflow=hidden;whiteSpace=wrap;html=1;" parent="virGl1MWygmbbHJwFy9H-76" vertex="1">
          <mxGeometry width="30" height="30" as="geometry">
            <mxRectangle width="30" height="30" as="alternateBounds" />
          </mxGeometry>
        </mxCell>
        <mxCell id="virGl1MWygmbbHJwFy9H-78" value="history_id" style="shape=partialRectangle;connectable=0;fillColor=none;top=0;left=0;bottom=0;right=0;align=left;spacingLeft=6;overflow=hidden;whiteSpace=wrap;html=1;" parent="virGl1MWygmbbHJwFy9H-76" vertex="1">
          <mxGeometry x="30" width="150" height="30" as="geometry">
            <mxRectangle width="150" height="30" as="alternateBounds" />
          </mxGeometry>
        </mxCell>
        <mxCell id="virGl1MWygmbbHJwFy9H-99" value="" style="edgeStyle=entityRelationEdgeStyle;fontSize=12;html=1;endArrow=ERzeroToMany;startArrow=ERmandOne;rounded=0;exitX=1;exitY=0.5;exitDx=0;exitDy=0;entryX=0;entryY=0.5;entryDx=0;entryDy=0;" parent="1" source="virGl1MWygmbbHJwFy9H-44" target="virGl1MWygmbbHJwFy9H-73" edge="1">
          <mxGeometry width="100" height="100" relative="1" as="geometry">
            <mxPoint x="240" y="370" as="sourcePoint" />
            <mxPoint x="340" y="270" as="targetPoint" />
          </mxGeometry>
        </mxCell>
        <mxCell id="virGl1MWygmbbHJwFy9H-100" value="" style="edgeStyle=entityRelationEdgeStyle;fontSize=12;html=1;endArrow=ERzeroToMany;startArrow=ERmandOne;rounded=0;entryX=1;entryY=0.5;entryDx=0;entryDy=0;exitX=0;exitY=0.5;exitDx=0;exitDy=0;" parent="1" source="virGl1MWygmbbHJwFy9H-18" target="virGl1MWygmbbHJwFy9H-76" edge="1">
          <mxGeometry width="100" height="100" relative="1" as="geometry">
            <mxPoint x="640" y="490" as="sourcePoint" />
            <mxPoint x="710" y="350" as="targetPoint" />
          </mxGeometry>
        </mxCell>
        <mxCell id="virGl1MWygmbbHJwFy9H-109" value="" style="edgeStyle=elbowEdgeStyle;fontSize=12;html=1;endArrow=ERzeroToMany;startArrow=ERmandOne;rounded=0;exitX=0;exitY=0.5;exitDx=0;exitDy=0;entryX=0;entryY=0.5;entryDx=0;entryDy=0;" parent="1" target="virGl1MWygmbbHJwFy9H-114" edge="1">
          <mxGeometry width="100" height="100" relative="1" as="geometry">
            <mxPoint x="50" y="65" as="sourcePoint" />
            <mxPoint x="40" y="320" as="targetPoint" />
            <Array as="points">
              <mxPoint y="195" />
            </Array>
          </mxGeometry>
        </mxCell>
        <mxCell id="virGl1MWygmbbHJwFy9H-110" value="" style="edgeStyle=entityRelationEdgeStyle;fontSize=12;html=1;endArrow=ERzeroToMany;startArrow=ERmandOne;rounded=0;exitX=0;exitY=0.5;exitDx=0;exitDy=0;entryX=1;entryY=0.5;entryDx=0;entryDy=0;" parent="1" source="virGl1MWygmbbHJwFy9H-31" target="virGl1MWygmbbHJwFy9H-95" edge="1">
          <mxGeometry width="100" height="100" relative="1" as="geometry">
            <mxPoint x="850" y="220" as="sourcePoint" />
            <mxPoint x="950" y="120" as="targetPoint" />
          </mxGeometry>
        </mxCell>
      </root>
    </mxGraphModel>
  </diagram>
  <diagram id="kt4qGgymYK0ey5Zv--a2" name="管理者遷移図">
    <mxGraphModel dx="1434" dy="746" grid="1" gridSize="10" guides="1" tooltips="1" connect="1" arrows="1" fold="1" page="1" pageScale="1" pageWidth="827" pageHeight="1169" math="0" shadow="0">
      <root>
        <mxCell id="0" />
        <mxCell id="1" parent="0" />
        <mxCell id="gI6pmX9Z9gn-ardTcksA-2" value="管理者" style="html=1;verticalAlign=bottom;startArrow=oval;startFill=1;endArrow=block;startSize=8;curved=0;rounded=0;strokeWidth=2;" parent="1" edge="1">
          <mxGeometry x="-1" y="20" width="60" relative="1" as="geometry">
            <mxPoint x="60" y="1130" as="sourcePoint" />
            <mxPoint x="120" y="1130" as="targetPoint" />
            <mxPoint as="offset" />
          </mxGeometry>
        </mxCell>
        <mxCell id="gI6pmX9Z9gn-ardTcksA-3" value="管理者ログイン画面" style="html=1;whiteSpace=wrap;" parent="1" vertex="1">
          <mxGeometry x="120" y="1100" width="110" height="50" as="geometry" />
        </mxCell>
        <mxCell id="gI6pmX9Z9gn-ardTcksA-4" value="「ログインボタン」クリック" style="html=1;verticalAlign=bottom;endArrow=block;curved=0;rounded=0;entryX=0;entryY=0.5;entryDx=0;entryDy=0;" parent="1" target="gI6pmX9Z9gn-ardTcksA-5" edge="1">
          <mxGeometry width="80" relative="1" as="geometry">
            <mxPoint x="230" y="1130" as="sourcePoint" />
            <mxPoint x="420" y="1130" as="targetPoint" />
          </mxGeometry>
        </mxCell>
        <mxCell id="gI6pmX9Z9gn-ardTcksA-5" value="商品一覧画面&lt;div&gt;&lt;br/&gt;&lt;/div&gt;" style="html=1;whiteSpace=wrap;" parent="1" vertex="1">
          <mxGeometry x="420" y="1100" width="110" height="50" as="geometry" />
        </mxCell>
        <mxCell id="gI6pmX9Z9gn-ardTcksA-6" value="" style="html=1;verticalAlign=bottom;endArrow=block;curved=0;rounded=0;entryX=0;entryY=0.5;entryDx=0;entryDy=0;exitX=1;exitY=0.5;exitDx=0;exitDy=0;" parent="1" source="gI6pmX9Z9gn-ardTcksA-5" target="gI6pmX9Z9gn-ardTcksA-7" edge="1">
          <mxGeometry width="80" relative="1" as="geometry">
            <mxPoint x="530" y="1130" as="sourcePoint" />
            <mxPoint x="650" y="1130" as="targetPoint" />
          </mxGeometry>
        </mxCell>
        <mxCell id="gI6pmX9Z9gn-ardTcksA-7" value="" style="ellipse;html=1;shape=endState;fillColor=#000000;strokeColor=#ff0000;" parent="1" vertex="1">
          <mxGeometry x="705" y="1110" width="30" height="30" as="geometry" />
        </mxCell>
        <mxCell id="gI6pmX9Z9gn-ardTcksA-8" value="管理者" style="html=1;verticalAlign=bottom;startArrow=oval;startFill=1;endArrow=block;startSize=8;curved=0;rounded=0;strokeWidth=2;" parent="1" edge="1">
          <mxGeometry x="-1" y="20" width="60" relative="1" as="geometry">
            <mxPoint x="60" y="320" as="sourcePoint" />
            <mxPoint x="120" y="320" as="targetPoint" />
            <mxPoint as="offset" />
          </mxGeometry>
        </mxCell>
        <mxCell id="gI6pmX9Z9gn-ardTcksA-9" value="管理者ログイン画面" style="html=1;whiteSpace=wrap;" parent="1" vertex="1">
          <mxGeometry x="120" y="290" width="110" height="50" as="geometry" />
        </mxCell>
        <mxCell id="gI6pmX9Z9gn-ardTcksA-10" value="「ログインボタン」クリック" style="html=1;verticalAlign=bottom;endArrow=block;curved=0;rounded=0;" parent="1" target="gI6pmX9Z9gn-ardTcksA-11" edge="1">
          <mxGeometry width="80" relative="1" as="geometry">
            <mxPoint x="230" y="320" as="sourcePoint" />
            <mxPoint x="420" y="320" as="targetPoint" />
          </mxGeometry>
        </mxCell>
        <mxCell id="gI6pmX9Z9gn-ardTcksA-11" value="商品一覧画面" style="html=1;whiteSpace=wrap;" parent="1" vertex="1">
          <mxGeometry x="420" y="290" width="110" height="50" as="geometry" />
        </mxCell>
        <mxCell id="gI6pmX9Z9gn-ardTcksA-12" value="「商品追加ボタン」クリック" style="html=1;verticalAlign=bottom;endArrow=block;curved=0;rounded=0;" parent="1" edge="1">
          <mxGeometry x="0.2658" y="90" width="80" relative="1" as="geometry">
            <mxPoint x="500" y="340" as="sourcePoint" />
            <mxPoint x="500" y="419" as="targetPoint" />
            <mxPoint as="offset" />
          </mxGeometry>
        </mxCell>
        <mxCell id="gI6pmX9Z9gn-ardTcksA-13" value="「戻るボタン」クリック" style="html=1;verticalAlign=bottom;endArrow=block;curved=0;rounded=0;" parent="1" edge="1">
          <mxGeometry x="-0.2658" y="70" width="80" relative="1" as="geometry">
            <mxPoint x="450" y="419" as="sourcePoint" />
            <mxPoint x="450" y="340" as="targetPoint" />
            <mxPoint as="offset" />
          </mxGeometry>
        </mxCell>
        <mxCell id="gI6pmX9Z9gn-ardTcksA-14" value="商品登録画面" style="html=1;whiteSpace=wrap;" parent="1" vertex="1">
          <mxGeometry x="430" y="420" width="110" height="50" as="geometry" />
        </mxCell>
        <mxCell id="gI6pmX9Z9gn-ardTcksA-15" value="「商品追加を続けるボタン」&lt;br&gt;クリック" style="html=1;verticalAlign=bottom;endArrow=block;curved=0;rounded=0;" parent="1" edge="1">
          <mxGeometry x="-0.2658" y="90" width="80" relative="1" as="geometry">
            <mxPoint x="450" y="549" as="sourcePoint" />
            <mxPoint x="450" y="470" as="targetPoint" />
            <mxPoint as="offset" />
          </mxGeometry>
        </mxCell>
        <mxCell id="gI6pmX9Z9gn-ardTcksA-16" value="「追加ボタン」クリック" style="html=1;verticalAlign=bottom;endArrow=block;curved=0;rounded=0;" parent="1" edge="1">
          <mxGeometry x="0.2658" y="70" width="80" relative="1" as="geometry">
            <mxPoint x="500" y="470" as="sourcePoint" />
            <mxPoint x="500" y="549" as="targetPoint" />
            <mxPoint as="offset" />
          </mxGeometry>
        </mxCell>
        <mxCell id="gI6pmX9Z9gn-ardTcksA-17" value="商品登録完了画面" style="html=1;whiteSpace=wrap;" parent="1" vertex="1">
          <mxGeometry x="430" y="550" width="110" height="50" as="geometry" />
        </mxCell>
        <mxCell id="gI6pmX9Z9gn-ardTcksA-19" value="「管理TOPへ戻るボタン」&lt;br&gt;クリック" style="html=1;verticalAlign=bottom;endArrow=block;curved=0;rounded=0;" parent="1" edge="1">
          <mxGeometry x="0.0555" y="73" width="80" relative="1" as="geometry">
            <mxPoint x="484.5" y="600" as="sourcePoint" />
            <mxPoint x="485" y="710" as="targetPoint" />
            <mxPoint as="offset" />
          </mxGeometry>
        </mxCell>
        <mxCell id="gI6pmX9Z9gn-ardTcksA-20" value="" style="ellipse;html=1;shape=endState;fillColor=#000000;strokeColor=#ff0000;" parent="1" vertex="1">
          <mxGeometry x="470" y="710" width="30" height="30" as="geometry" />
        </mxCell>
        <mxCell id="gI6pmX9Z9gn-ardTcksA-21" value="商品一覧画面へ戻る" style="text;html=1;align=center;verticalAlign=middle;resizable=0;points=[];autosize=1;strokeColor=none;fillColor=none;" parent="1" vertex="1">
          <mxGeometry x="510" y="710" width="130" height="30" as="geometry" />
        </mxCell>
        <mxCell id="gI6pmX9Z9gn-ardTcksA-23" value="管理者" style="html=1;verticalAlign=bottom;startArrow=oval;startFill=1;endArrow=block;startSize=8;curved=0;rounded=0;strokeWidth=2;" parent="1" edge="1">
          <mxGeometry x="-1" y="20" width="60" relative="1" as="geometry">
            <mxPoint x="750" y="320" as="sourcePoint" />
            <mxPoint x="810" y="320" as="targetPoint" />
            <mxPoint as="offset" />
          </mxGeometry>
        </mxCell>
        <mxCell id="gI6pmX9Z9gn-ardTcksA-24" value="管理者ログイン画面" style="html=1;whiteSpace=wrap;" parent="1" vertex="1">
          <mxGeometry x="810" y="290" width="110" height="50" as="geometry" />
        </mxCell>
        <mxCell id="gI6pmX9Z9gn-ardTcksA-25" value="「ログインボタン」クリック" style="html=1;verticalAlign=bottom;endArrow=block;curved=0;rounded=0;" parent="1" target="gI6pmX9Z9gn-ardTcksA-26" edge="1">
          <mxGeometry width="80" relative="1" as="geometry">
            <mxPoint x="920" y="320" as="sourcePoint" />
            <mxPoint x="1110" y="320" as="targetPoint" />
          </mxGeometry>
        </mxCell>
        <mxCell id="gI6pmX9Z9gn-ardTcksA-26" value="商品一覧画面" style="html=1;whiteSpace=wrap;" parent="1" vertex="1">
          <mxGeometry x="1110" y="290" width="110" height="50" as="geometry" />
        </mxCell>
        <mxCell id="gI6pmX9Z9gn-ardTcksA-27" value="「商品変更ボタン」クリック" style="html=1;verticalAlign=bottom;endArrow=block;curved=0;rounded=0;" parent="1" edge="1">
          <mxGeometry x="0.2658" y="90" width="80" relative="1" as="geometry">
            <mxPoint x="1190" y="340" as="sourcePoint" />
            <mxPoint x="1190" y="419" as="targetPoint" />
            <mxPoint as="offset" />
          </mxGeometry>
        </mxCell>
        <mxCell id="gI6pmX9Z9gn-ardTcksA-28" value="「戻るボタン」クリック" style="html=1;verticalAlign=bottom;endArrow=block;curved=0;rounded=0;" parent="1" edge="1">
          <mxGeometry x="-0.2658" y="70" width="80" relative="1" as="geometry">
            <mxPoint x="1140" y="419" as="sourcePoint" />
            <mxPoint x="1140" y="340" as="targetPoint" />
            <mxPoint as="offset" />
          </mxGeometry>
        </mxCell>
        <mxCell id="gI6pmX9Z9gn-ardTcksA-29" value="商品編集画面" style="html=1;whiteSpace=wrap;" parent="1" vertex="1">
          <mxGeometry x="1120" y="420" width="110" height="50" as="geometry" />
        </mxCell>
        <mxCell id="gI6pmX9Z9gn-ardTcksA-30" value="「商品編集を続けるボタン」&lt;br&gt;クリック" style="html=1;verticalAlign=bottom;endArrow=block;curved=0;rounded=0;" parent="1" edge="1">
          <mxGeometry x="-0.2658" y="90" width="80" relative="1" as="geometry">
            <mxPoint x="1140" y="549" as="sourcePoint" />
            <mxPoint x="1140" y="470" as="targetPoint" />
            <mxPoint as="offset" />
          </mxGeometry>
        </mxCell>
        <mxCell id="gI6pmX9Z9gn-ardTcksA-31" value="「変更ボタン」クリック" style="html=1;verticalAlign=bottom;endArrow=block;curved=0;rounded=0;" parent="1" edge="1">
          <mxGeometry x="0.2658" y="70" width="80" relative="1" as="geometry">
            <mxPoint x="1190" y="470" as="sourcePoint" />
            <mxPoint x="1190" y="549" as="targetPoint" />
            <mxPoint as="offset" />
          </mxGeometry>
        </mxCell>
        <mxCell id="gI6pmX9Z9gn-ardTcksA-32" value="商品変更完了画面" style="html=1;whiteSpace=wrap;" parent="1" vertex="1">
          <mxGeometry x="1120" y="550" width="110" height="50" as="geometry" />
        </mxCell>
        <mxCell id="gI6pmX9Z9gn-ardTcksA-33" value="「管理TOPへ戻るボタン」&lt;br&gt;クリック" style="html=1;verticalAlign=bottom;endArrow=block;curved=0;rounded=0;" parent="1" edge="1">
          <mxGeometry x="0.0555" y="73" width="80" relative="1" as="geometry">
            <mxPoint x="1174.5" y="600" as="sourcePoint" />
            <mxPoint x="1175" y="710" as="targetPoint" />
            <mxPoint as="offset" />
          </mxGeometry>
        </mxCell>
        <mxCell id="gI6pmX9Z9gn-ardTcksA-34" value="" style="ellipse;html=1;shape=endState;fillColor=#000000;strokeColor=#ff0000;" parent="1" vertex="1">
          <mxGeometry x="1160" y="710" width="30" height="30" as="geometry" />
        </mxCell>
        <mxCell id="gI6pmX9Z9gn-ardTcksA-35" value="商品一覧画面へ戻る" style="text;html=1;align=center;verticalAlign=middle;resizable=0;points=[];autosize=1;strokeColor=none;fillColor=none;" parent="1" vertex="1">
          <mxGeometry x="1200" y="710" width="130" height="30" as="geometry" />
        </mxCell>
        <mxCell id="gI6pmX9Z9gn-ardTcksA-36" value="登録" style="text;html=1;align=center;verticalAlign=middle;resizable=0;points=[];autosize=1;strokeColor=none;fillColor=none;" parent="1" vertex="1">
          <mxGeometry x="45" y="238" width="50" height="30" as="geometry" />
        </mxCell>
        <mxCell id="gI6pmX9Z9gn-ardTcksA-37" value="編集" style="text;html=1;align=center;verticalAlign=middle;resizable=0;points=[];autosize=1;strokeColor=none;fillColor=none;" parent="1" vertex="1">
          <mxGeometry x="735" y="238" width="50" height="30" as="geometry" />
        </mxCell>
        <mxCell id="gI6pmX9Z9gn-ardTcksA-38" value="管理者" style="html=1;verticalAlign=bottom;startArrow=oval;startFill=1;endArrow=block;startSize=8;curved=0;rounded=0;strokeWidth=2;" parent="1" edge="1">
          <mxGeometry x="-1" y="20" width="60" relative="1" as="geometry">
            <mxPoint x="1450" y="320" as="sourcePoint" />
            <mxPoint x="1510" y="320" as="targetPoint" />
            <mxPoint as="offset" />
          </mxGeometry>
        </mxCell>
        <mxCell id="gI6pmX9Z9gn-ardTcksA-39" value="管理者ログイン画面" style="html=1;whiteSpace=wrap;" parent="1" vertex="1">
          <mxGeometry x="1510" y="290" width="110" height="50" as="geometry" />
        </mxCell>
        <mxCell id="gI6pmX9Z9gn-ardTcksA-40" value="「ログインボタン」クリック" style="html=1;verticalAlign=bottom;endArrow=block;curved=0;rounded=0;" parent="1" target="gI6pmX9Z9gn-ardTcksA-41" edge="1">
          <mxGeometry width="80" relative="1" as="geometry">
            <mxPoint x="1620" y="320" as="sourcePoint" />
            <mxPoint x="1810" y="320" as="targetPoint" />
          </mxGeometry>
        </mxCell>
        <mxCell id="gI6pmX9Z9gn-ardTcksA-41" value="商品一覧画面" style="html=1;whiteSpace=wrap;" parent="1" vertex="1">
          <mxGeometry x="1810" y="290" width="110" height="50" as="geometry" />
        </mxCell>
        <mxCell id="gI6pmX9Z9gn-ardTcksA-42" value="「商品削除ボタン」クリック" style="html=1;verticalAlign=bottom;endArrow=block;curved=0;rounded=0;" parent="1" edge="1">
          <mxGeometry x="0.2658" y="90" width="80" relative="1" as="geometry">
            <mxPoint x="1890" y="340" as="sourcePoint" />
            <mxPoint x="1890" y="419" as="targetPoint" />
            <mxPoint as="offset" />
          </mxGeometry>
        </mxCell>
        <mxCell id="gI6pmX9Z9gn-ardTcksA-43" value="「戻るボタン」クリック" style="html=1;verticalAlign=bottom;endArrow=block;curved=0;rounded=0;" parent="1" edge="1">
          <mxGeometry x="-0.2658" y="70" width="80" relative="1" as="geometry">
            <mxPoint x="1840" y="419" as="sourcePoint" />
            <mxPoint x="1840" y="340" as="targetPoint" />
            <mxPoint as="offset" />
          </mxGeometry>
        </mxCell>
        <mxCell id="gI6pmX9Z9gn-ardTcksA-44" value="商品削除画面" style="html=1;whiteSpace=wrap;" parent="1" vertex="1">
          <mxGeometry x="1820" y="420" width="110" height="50" as="geometry" />
        </mxCell>
        <mxCell id="gI6pmX9Z9gn-ardTcksA-45" value="「商品削除を続けるボタン」&lt;br&gt;クリック" style="html=1;verticalAlign=bottom;endArrow=block;curved=0;rounded=0;" parent="1" edge="1">
          <mxGeometry x="-0.2658" y="90" width="80" relative="1" as="geometry">
            <mxPoint x="1840" y="549" as="sourcePoint" />
            <mxPoint x="1840" y="470" as="targetPoint" />
            <mxPoint as="offset" />
          </mxGeometry>
        </mxCell>
        <mxCell id="gI6pmX9Z9gn-ardTcksA-46" value="「削除ボタン」クリック" style="html=1;verticalAlign=bottom;endArrow=block;curved=0;rounded=0;" parent="1" edge="1">
          <mxGeometry x="0.2658" y="70" width="80" relative="1" as="geometry">
            <mxPoint x="1890" y="470" as="sourcePoint" />
            <mxPoint x="1890" y="549" as="targetPoint" />
            <mxPoint as="offset" />
          </mxGeometry>
        </mxCell>
        <mxCell id="gI6pmX9Z9gn-ardTcksA-47" value="商品削除完了画面" style="html=1;whiteSpace=wrap;" parent="1" vertex="1">
          <mxGeometry x="1820" y="550" width="110" height="50" as="geometry" />
        </mxCell>
        <mxCell id="gI6pmX9Z9gn-ardTcksA-48" value="「管理TOPへ戻るボタン」&lt;br&gt;クリック" style="html=1;verticalAlign=bottom;endArrow=block;curved=0;rounded=0;" parent="1" edge="1">
          <mxGeometry x="0.0555" y="73" width="80" relative="1" as="geometry">
            <mxPoint x="1874.5" y="600" as="sourcePoint" />
            <mxPoint x="1875" y="710" as="targetPoint" />
            <mxPoint as="offset" />
          </mxGeometry>
        </mxCell>
        <mxCell id="gI6pmX9Z9gn-ardTcksA-49" value="" style="ellipse;html=1;shape=endState;fillColor=#000000;strokeColor=#ff0000;" parent="1" vertex="1">
          <mxGeometry x="1860" y="710" width="30" height="30" as="geometry" />
        </mxCell>
        <mxCell id="gI6pmX9Z9gn-ardTcksA-50" value="商品一覧画面へ戻る" style="text;html=1;align=center;verticalAlign=middle;resizable=0;points=[];autosize=1;strokeColor=none;fillColor=none;" parent="1" vertex="1">
          <mxGeometry x="1900" y="710" width="130" height="30" as="geometry" />
        </mxCell>
        <mxCell id="gI6pmX9Z9gn-ardTcksA-51" value="削除" style="text;html=1;align=center;verticalAlign=middle;resizable=0;points=[];autosize=1;strokeColor=none;fillColor=none;" parent="1" vertex="1">
          <mxGeometry x="1425" y="248" width="50" height="30" as="geometry" />
        </mxCell>
        <mxCell id="gI6pmX9Z9gn-ardTcksA-52" value="管理者" style="html=1;verticalAlign=bottom;startArrow=oval;startFill=1;endArrow=block;startSize=8;curved=0;rounded=0;strokeWidth=2;" parent="1" edge="1">
          <mxGeometry x="-1" y="20" width="60" relative="1" as="geometry">
            <mxPoint x="54" y="930" as="sourcePoint" />
            <mxPoint x="114" y="930" as="targetPoint" />
            <mxPoint as="offset" />
          </mxGeometry>
        </mxCell>
        <mxCell id="gI6pmX9Z9gn-ardTcksA-53" value="管理者登録画面" style="html=1;whiteSpace=wrap;" parent="1" vertex="1">
          <mxGeometry x="114" y="900" width="125" height="70" as="geometry" />
        </mxCell>
        <mxCell id="gI6pmX9Z9gn-ardTcksA-54" value="「確認画面へボタン」クリック" style="html=1;verticalAlign=bottom;endArrow=block;curved=0;rounded=0;" parent="1" edge="1">
          <mxGeometry x="-0.112" y="18" width="80" relative="1" as="geometry">
            <mxPoint x="239" y="928.47" as="sourcePoint" />
            <mxPoint x="489" y="928.48" as="targetPoint" />
            <mxPoint as="offset" />
          </mxGeometry>
        </mxCell>
        <mxCell id="gI6pmX9Z9gn-ardTcksA-55" value="管理者登録内容確認画面" style="html=1;whiteSpace=wrap;" parent="1" vertex="1">
          <mxGeometry x="489" y="900" width="171" height="70" as="geometry" />
        </mxCell>
        <mxCell id="gI6pmX9Z9gn-ardTcksA-59" value="「戻って変更するボタン」クリック" style="html=1;verticalAlign=bottom;endArrow=block;curved=0;rounded=0;" parent="1" edge="1">
          <mxGeometry x="-0.04" y="30" width="80" relative="1" as="geometry">
            <mxPoint x="490" y="940.53" as="sourcePoint" />
            <mxPoint x="240" y="940.54" as="targetPoint" />
            <mxPoint as="offset" />
          </mxGeometry>
        </mxCell>
        <mxCell id="gI6pmX9Z9gn-ardTcksA-56" value="" style="html=1;verticalAlign=bottom;endArrow=block;curved=0;rounded=0;" parent="1" edge="1">
          <mxGeometry width="80" relative="1" as="geometry">
            <mxPoint x="659" y="935.5" as="sourcePoint" />
            <mxPoint x="880" y="935" as="targetPoint" />
          </mxGeometry>
        </mxCell>
        <mxCell id="gI6pmX9Z9gn-ardTcksA-61" value="「新規登録ボタン」クリック" style="text;html=1;align=center;verticalAlign=middle;resizable=0;points=[];autosize=1;strokeColor=none;fillColor=none;" parent="1" vertex="1">
          <mxGeometry x="680" y="940" width="180" height="30" as="geometry" />
        </mxCell>
        <mxCell id="gI6pmX9Z9gn-ardTcksA-62" value="管理者ログイン画面&lt;div&gt;&lt;br/&gt;&lt;/div&gt;" style="html=1;whiteSpace=wrap;" parent="1" vertex="1">
          <mxGeometry x="880" y="900" width="140" height="70" as="geometry" />
        </mxCell>
        <mxCell id="gI6pmX9Z9gn-ardTcksA-65" value="" style="html=1;verticalAlign=bottom;endArrow=block;curved=0;rounded=0;" parent="1" edge="1">
          <mxGeometry width="80" relative="1" as="geometry">
            <mxPoint x="1020" y="935" as="sourcePoint" />
            <mxPoint x="1120" y="935" as="targetPoint" />
          </mxGeometry>
        </mxCell>
        <mxCell id="gI6pmX9Z9gn-ardTcksA-66" value="" style="ellipse;html=1;shape=endState;fillColor=#000000;strokeColor=#ff0000;" parent="1" vertex="1">
          <mxGeometry x="1120" y="920" width="30" height="30" as="geometry" />
        </mxCell>
        <mxCell id="gI6pmX9Z9gn-ardTcksA-68" value="管理者登録機能" style="text;html=1;align=center;verticalAlign=middle;resizable=0;points=[];autosize=1;strokeColor=none;fillColor=none;" parent="1" vertex="1">
          <mxGeometry x="40" y="840" width="110" height="30" as="geometry" />
        </mxCell>
        <mxCell id="gI6pmX9Z9gn-ardTcksA-70" value="ログイン機能" style="text;html=1;align=center;verticalAlign=middle;resizable=0;points=[];autosize=1;strokeColor=none;fillColor=none;" parent="1" vertex="1">
          <mxGeometry x="20" y="1048" width="100" height="30" as="geometry" />
        </mxCell>
        <mxCell id="gI6pmX9Z9gn-ardTcksA-72" value="管理者" style="html=1;verticalAlign=bottom;startArrow=oval;startFill=1;endArrow=block;startSize=8;curved=0;rounded=0;strokeWidth=2;" parent="1" edge="1">
          <mxGeometry x="-1" y="20" width="60" relative="1" as="geometry">
            <mxPoint x="45" y="1300" as="sourcePoint" />
            <mxPoint x="105" y="1300" as="targetPoint" />
            <mxPoint as="offset" />
          </mxGeometry>
        </mxCell>
        <mxCell id="gI6pmX9Z9gn-ardTcksA-73" value="管理者ログイン画面" style="html=1;whiteSpace=wrap;" parent="1" vertex="1">
          <mxGeometry x="105" y="1270" width="110" height="50" as="geometry" />
        </mxCell>
        <mxCell id="gI6pmX9Z9gn-ardTcksA-74" value="「ログインボタン」クリック" style="html=1;verticalAlign=bottom;endArrow=block;curved=0;rounded=0;" parent="1" target="gI6pmX9Z9gn-ardTcksA-75" edge="1">
          <mxGeometry width="80" relative="1" as="geometry">
            <mxPoint x="215" y="1300" as="sourcePoint" />
            <mxPoint x="405" y="1300" as="targetPoint" />
          </mxGeometry>
        </mxCell>
        <mxCell id="gI6pmX9Z9gn-ardTcksA-75" value="商品一覧画面" style="html=1;whiteSpace=wrap;" parent="1" vertex="1">
          <mxGeometry x="405" y="1270" width="110" height="50" as="geometry" />
        </mxCell>
        <mxCell id="gI6pmX9Z9gn-ardTcksA-76" value="" style="html=1;verticalAlign=bottom;endArrow=block;curved=0;rounded=0;entryX=0;entryY=0.5;entryDx=0;entryDy=0;" parent="1" target="gI6pmX9Z9gn-ardTcksA-77" edge="1">
          <mxGeometry width="80" relative="1" as="geometry">
            <mxPoint x="515" y="1300" as="sourcePoint" />
            <mxPoint x="635" y="1300" as="targetPoint" />
          </mxGeometry>
        </mxCell>
        <mxCell id="gI6pmX9Z9gn-ardTcksA-77" value="" style="ellipse;html=1;shape=endState;fillColor=#000000;strokeColor=#ff0000;" parent="1" vertex="1">
          <mxGeometry x="735" y="1288" width="30" height="30" as="geometry" />
        </mxCell>
        <mxCell id="gI6pmX9Z9gn-ardTcksA-78" value="ログアウト機能" style="text;html=1;align=center;verticalAlign=middle;resizable=0;points=[];autosize=1;strokeColor=none;fillColor=none;" parent="1" vertex="1">
          <mxGeometry x="30" y="1228" width="110" height="30" as="geometry" />
        </mxCell>
        <mxCell id="gI6pmX9Z9gn-ardTcksA-79" value="「ログアウトボタン」クリック" style="text;html=1;align=center;verticalAlign=middle;resizable=0;points=[];autosize=1;strokeColor=none;fillColor=none;" parent="1" vertex="1">
          <mxGeometry x="530" y="1258" width="190" height="30" as="geometry" />
        </mxCell>
      </root>
    </mxGraphModel>
  </diagram>
  <diagram id="anXpP0uCU0taGYHQSakh" name="ユーザー遷移図">
    <mxGraphModel dx="1434" dy="746" grid="1" gridSize="10" guides="1" tooltips="1" connect="1" arrows="1" fold="1" page="1" pageScale="1" pageWidth="827" pageHeight="1169" math="0" shadow="0">
      <root>
        <mxCell id="0" />
        <mxCell id="1" parent="0" />
      </root>
    </mxGraphModel>
  </diagram>
</mxfile>
